<svg width="21" height="22" viewBox="0 0 21 22" fill="none" xmlns="http://www.w3.org/2000/svg">
<path d="M19.25 11.2148H14L12.25 13.8398H8.75L7 11.2148H1.75" stroke="#4D4D4D" stroke-width="2" stroke-linecap="round" stroke-linejoin="round"/>
<path d="M4.76875 5.18609L1.75 11.2148V16.4648C1.75 16.929 1.93437 17.3741 2.26256 17.7023C2.59075 18.0305 3.03587 18.2148 3.5 18.2148H17.5C17.9641 18.2148 18.4092 18.0305 18.7374 17.7023C19.0656 17.3741 19.25 16.929 19.25 16.4648V11.2148L16.2312 5.18609C16.0864 4.89453 15.863 4.64917 15.5863 4.47759C15.3096 4.30601 14.9906 4.21502 14.665 4.21484H6.335C6.00943 4.21502 5.69036 4.30601 5.41366 4.47759C5.13697 4.64917 4.91363 4.89453 4.76875 5.18609Z" stroke="#4D4D4D" stroke-width="2" stroke-linecap="round" stroke-linejoin="round"/>
</svg>
