<svg width="21" height="22" viewBox="0 0 21 22" fill="none" xmlns="http://www.w3.org/2000/svg">
<path d="M19.25 15.5199V18.1449C19.251 18.3886 19.2011 18.6298 19.1034 18.8531C19.0058 19.0764 18.8626 19.2768 18.6831 19.4416C18.5035 19.6063 18.2915 19.7317 18.0607 19.8098C17.8298 19.8879 17.5852 19.9169 17.3425 19.8949C14.65 19.6024 12.0636 18.6823 9.79125 17.2087C7.6771 15.8653 5.88467 14.0728 4.54125 11.9587C3.06248 9.67598 2.14222 7.07705 1.855 4.37243C1.83314 4.13046 1.86189 3.88659 1.93944 3.65635C2.01699 3.42611 2.14163 3.21453 2.30542 3.0351C2.46922 2.85566 2.66858 2.7123 2.89082 2.61414C3.11306 2.51597 3.3533 2.46516 3.59625 2.46493H6.22125C6.6459 2.46075 7.05757 2.61112 7.37954 2.88802C7.70152 3.16492 7.91182 3.54944 7.97125 3.96993C8.08205 4.80999 8.28752 5.63481 8.58375 6.42868C8.70148 6.74186 8.72696 7.08223 8.65717 7.40945C8.58738 7.73667 8.42526 8.03703 8.19 8.27493L7.07875 9.38618C8.32436 11.5768 10.1382 13.3906 12.3288 14.6362L13.44 13.5249C13.6779 13.2897 13.9783 13.1275 14.3055 13.0578C14.6327 12.988 14.9731 13.0135 15.2863 13.1312C16.0801 13.4274 16.9049 13.6329 17.745 13.7437C18.17 13.8036 18.5582 14.0177 18.8357 14.3452C19.1132 14.6727 19.2607 15.0908 19.25 15.5199Z" stroke="#4D4D4D" stroke-width="2" stroke-linecap="round" stroke-linejoin="round"/>
</svg>
